<svg width="24" height="24" viewBox="0 0 24 24" fill="none" xmlns="http://www.w3.org/2000/svg">
<path d="M10.5453 2.32463L9.87781 9H6.87781C6.87781 9 6.1278 9.75 6.1278 12C6.1278 14.25 6.87781 15 6.87781 15H9.87781L10.5453 21.6754C10.5895 22.1169 10.2428 22.5 9.79906 22.5H6.92235C5.56801 22.5 4.38303 21.5937 4.09216 20.2709C3.61777 18.1137 3 14.7722 3 12C3 9.2278 3.61777 5.88634 4.09216 3.72907C4.38303 2.40634 5.56801 1.5 6.92235 1.5H9.79906C10.2428 1.5 10.5895 1.88311 10.5453 2.32463Z" fill="#466FAD"/>
<path fill-rule="evenodd" clip-rule="evenodd" d="M13 15C14.3807 15 15.5 13.8807 15.5 12.5C15.5 11.1193 14.3807 10 13 10C11.6193 10 10.5 11.1193 10.5 12.5C10.5 13.8807 11.6193 15 13 15ZM13 13.5C13.5523 13.5 14 13.0523 14 12.5C14 11.9477 13.5523 11.5 13 11.5C12.4477 11.5 12 11.9477 12 12.5C12 13.0523 12.4477 13.5 13 13.5Z" fill="#466FAD"/>
<path fill-rule="evenodd" clip-rule="evenodd" d="M19.8001 10.0814C19.3582 9.63953 18.6418 9.63953 18.1999 10.0814L16.5814 11.6999C16.1395 12.1418 16.1395 12.8582 16.5814 13.3001L18.1999 14.9186C18.6418 15.3605 19.3582 15.3605 19.8001 14.9186L21.4186 13.3001C21.8605 12.8582 21.8605 12.1418 21.4186 11.6999L19.8001 10.0814ZM17.9026 12.5L19 11.4026L20.0974 12.5L19 13.5974L17.9026 12.5Z" fill="#466FAD"/>
</svg>
