<svg width="24" height="24" viewBox="0 0 24 24" fill="none" xmlns="http://www.w3.org/2000/svg">
<path d="M11.9697 21C12.6067 21 13.2357 20.944 13.8568 20.832C14.4858 20.72 15.0909 20.548 15.6722 20.316L14.9197 18.18C14.012 18.548 13.0645 18.732 12.0772 18.732C10.7793 18.732 9.63668 18.48 8.64934 17.976C7.662 17.464 6.88566 16.724 6.32033 15.756C5.755 14.788 5.45243 13.624 5.41262 12.264C5.3728 10.856 5.61168 9.62801 6.12923 8.58001C6.64679 7.53201 7.4072 6.72001 8.41047 6.14401C9.42169 5.56001 10.6439 5.26801 12.0772 5.26801C12.7699 5.26801 13.4945 5.36801 14.2509 5.56801C15.0073 5.76801 15.716 6.10801 16.3769 6.58801C17.0377 7.06801 17.5712 7.72001 17.9773 8.54401C18.3914 9.36801 18.5904 10.404 18.5745 11.652C18.5665 12.396 18.4869 13.02 18.3356 13.524C18.1843 14.02 17.8021 14.268 17.189 14.268C16.7989 14.268 16.4963 14.128 16.2813 13.848C16.0663 13.56 15.9588 13.108 15.9588 12.492L15.9947 7.96801H14.227V8.38801C13.8846 8.15601 13.4905 7.97201 13.0446 7.83601C12.6067 7.70001 12.1847 7.63201 11.7786 7.63201C10.9664 7.63201 10.2299 7.81201 9.569 8.17201C8.90812 8.53201 8.3826 9.04401 7.99244 9.70801C7.61024 10.372 7.41915 11.156 7.41915 12.06C7.41915 12.94 7.60228 13.712 7.96855 14.376C8.33482 15.04 8.84044 15.56 9.48539 15.936C10.1383 16.304 10.8868 16.488 11.7308 16.488C12.2245 16.488 12.7102 16.404 13.1879 16.236C13.6736 16.068 14.0956 15.78 14.4539 15.372C14.7565 15.764 15.1507 16.06 15.6364 16.26C16.13 16.46 16.6396 16.56 17.1651 16.56C18.5188 16.56 19.4902 16.132 20.0794 15.276C20.6766 14.412 20.9831 13.192 20.999 11.616C21.015 10.472 20.8318 9.38401 20.4496 8.35201C20.0754 7.32001 19.5061 6.40401 18.7417 5.60401C17.9773 4.79601 17.0218 4.16001 15.8752 3.69601C14.7286 3.23201 13.3949 3.00001 11.8741 3.00001C10.6798 3.00001 9.54511 3.19601 8.47019 3.58801C7.40322 3.97201 6.45967 4.55601 5.63955 5.34001C4.81942 6.11601 4.17446 7.08801 3.70468 8.25601C3.2349 9.41601 3 10.776 3 12.336C3 13.584 3.21499 14.736 3.64496 15.792C4.08289 16.848 4.69998 17.764 5.49622 18.54C6.30043 19.324 7.24795 19.928 8.33881 20.352C9.43762 20.784 10.6479 21 11.9697 21ZM11.898 14.196C11.2451 14.196 10.7355 14.008 10.3692 13.632C10.0109 13.248 9.83176 12.724 9.83176 12.06C9.83176 11.404 10.0069 10.884 10.3573 10.5C10.7156 10.108 11.257 9.91201 11.9816 9.91201C13.2237 9.91201 13.8448 10.628 13.8448 12.06C13.8448 12.86 13.6537 13.416 13.2715 13.728C12.8973 14.04 12.4395 14.196 11.898 14.196Z" fill="#466FAD"/>
</svg>
