<svg width="24" height="24" viewBox="0 0 24 24" fill="none" xmlns="http://www.w3.org/2000/svg">
<path d="M8.12315 6.26132C8.01343 5.24984 7.95856 4.7441 8.03677 4.33145C8.23584 3.28104 9.01176 2.42817 10.048 2.12076C10.4551 2 10.9701 2 12 2C13.0299 2 13.5449 2 13.952 2.12076C14.9882 2.42817 15.7642 3.28104 15.9632 4.33145C16.0414 4.7441 15.9866 5.24984 15.8769 6.26131L15.601 8.80401C15.4039 10.6217 13.8508 12 12 12C10.1492 12 8.59615 10.6217 8.39897 8.80401L8.12315 6.26132Z" fill="#466FAD"/>
<path d="M3 19.25C3 17.1498 3 16.0997 3.40873 15.2975C3.76825 14.5919 4.34193 14.0183 5.04754 13.6587C5.8497 13.25 6.8998 13.25 9 13.25H15C17.1002 13.25 18.1503 13.25 18.9525 13.6587C19.6581 14.0183 20.2318 14.5919 20.5913 15.2975C21 16.0997 21 17.1498 21 19.25V22H3V19.25Z" fill="#466FAD"/>
</svg>
